# xmcd
#
# Track frame offsets:
#	150
#	16978
#	40078
#	58003
#	78178
#	94078
#	117178
#	135778
#	150628
#	168853
#	184903
#
# Disc length: 2657 seconds
# Revision: 0
# Processed by: cddbd v1.5.2PL0 Copyright (c) Steve Scherf et al.
# Submitted via: dBpowerAMP V12.0
#
DISCID=790a5f0b
DTITLE=Bill "Howl-n-Madd" Perry - The Clarksdale Sessions
DYEAR=2012
DGENRE=Blues
TTITLE0=Saturday Night
TTITLE1=Burglary in Progress
TTITLE2=Oh What a Feeling
TTITLE3=It's Your Life 
TTITLE4=Delta Women
TTITLE5=06 Miss Mary
TTITLE6=Jook Nanny
TTITLE7=Banks of The River
TTITLE8=Find a Reason to Believe
TTITLE9=Wanna Cook For ya
TTITLE10=Over The Rainbow
EXTD=
EXTT0=
EXTT1=
EXTT2=
EXTT3=
EXTT4=
EXTT5=
EXTT6=
EXTT7=
EXTT8=
EXTT9=
EXTT10=
PLAYORDER=
